<mxfile host="www.draw.io" modified="2020-01-03T10:19:26.472Z" agent="Mozilla/5.0 (Macintosh; Intel Mac OS X 10_14_0) AppleWebKit/537.36 (KHTML, like Gecko) Chrome/79.0.3945.88 Safari/537.36" etag="feFP_f5PZoV51w2c-5ik" version="12.4.8" type="github">
  <diagram id="EJ9qzd5KV30RbrvSwuQi" name="Page-1">
    <mxGraphModel dx="1186" dy="741" grid="1" gridSize="10" guides="1" tooltips="1" connect="1" arrows="1" fold="1" page="1" pageScale="1" pageWidth="827" pageHeight="1169" math="0" shadow="0">
      <root>
        <mxCell id="0"/>
        <mxCell id="1" parent="0"/>
        <mxCell id="ViBWjFZoWZCjZhML0BAw-1" value="Memoto" style="swimlane;fontStyle=1;align=center;verticalAlign=top;childLayout=stackLayout;horizontal=1;startSize=26;horizontalStack=0;resizeParent=1;resizeParentMax=0;resizeLast=0;collapsible=1;marginBottom=0;fillColor=#F08E81;fontColor=#FFFFFF;" vertex="1" parent="1">
          <mxGeometry x="320" y="110" width="160" height="105" as="geometry"/>
        </mxCell>
        <mxCell id="ViBWjFZoWZCjZhML0BAw-2" value="- state: Object" style="text;strokeColor=none;fillColor=#F08E81;align=left;verticalAlign=top;spacingLeft=4;spacingRight=4;overflow=hidden;rotatable=0;points=[[0,0.5],[1,0.5]];portConstraint=eastwest;fontColor=#FFFFFF;" vertex="1" parent="ViBWjFZoWZCjZhML0BAw-1">
          <mxGeometry y="26" width="160" height="26" as="geometry"/>
        </mxCell>
        <mxCell id="ViBWjFZoWZCjZhML0BAw-3" value="" style="line;strokeWidth=1;fillColor=#F08E81;align=left;verticalAlign=middle;spacingTop=-1;spacingLeft=3;spacingRight=3;rotatable=0;labelPosition=right;points=[];portConstraint=eastwest;fontColor=#FFFFFF;" vertex="1" parent="ViBWjFZoWZCjZhML0BAw-1">
          <mxGeometry y="52" width="160" height="1" as="geometry"/>
        </mxCell>
        <mxCell id="ViBWjFZoWZCjZhML0BAw-4" value="+ getState(): Object" style="text;strokeColor=none;fillColor=#F08E81;align=left;verticalAlign=top;spacingLeft=4;spacingRight=4;overflow=hidden;rotatable=0;points=[[0,0.5],[1,0.5]];portConstraint=eastwest;fontColor=#FFFFFF;" vertex="1" parent="ViBWjFZoWZCjZhML0BAw-1">
          <mxGeometry y="53" width="160" height="26" as="geometry"/>
        </mxCell>
        <mxCell id="ViBWjFZoWZCjZhML0BAw-5" value="+ setState(Object)" style="text;strokeColor=none;fillColor=#F08E81;align=left;verticalAlign=top;spacingLeft=4;spacingRight=4;overflow=hidden;rotatable=0;points=[[0,0.5],[1,0.5]];portConstraint=eastwest;fontColor=#FFFFFF;" vertex="1" parent="ViBWjFZoWZCjZhML0BAw-1">
          <mxGeometry y="79" width="160" height="26" as="geometry"/>
        </mxCell>
        <mxCell id="ViBWjFZoWZCjZhML0BAw-14" value="Originator" style="swimlane;fontStyle=1;align=center;verticalAlign=top;childLayout=stackLayout;horizontal=1;startSize=26;horizontalStack=0;resizeParent=1;resizeParentMax=0;resizeLast=0;collapsible=1;marginBottom=0;fillColor=#F08E81;fontColor=#FFFFFF;" vertex="1" parent="1">
          <mxGeometry x="160" y="320" width="160" height="157" as="geometry"/>
        </mxCell>
        <mxCell id="ViBWjFZoWZCjZhML0BAw-15" value="- state: Object" style="text;strokeColor=none;fillColor=#F08E81;align=left;verticalAlign=top;spacingLeft=4;spacingRight=4;overflow=hidden;rotatable=0;points=[[0,0.5],[1,0.5]];portConstraint=eastwest;fontColor=#FFFFFF;" vertex="1" parent="ViBWjFZoWZCjZhML0BAw-14">
          <mxGeometry y="26" width="160" height="26" as="geometry"/>
        </mxCell>
        <mxCell id="ViBWjFZoWZCjZhML0BAw-16" value="" style="line;strokeWidth=1;fillColor=#F08E81;align=left;verticalAlign=middle;spacingTop=-1;spacingLeft=3;spacingRight=3;rotatable=0;labelPosition=right;points=[];portConstraint=eastwest;fontColor=#FFFFFF;" vertex="1" parent="ViBWjFZoWZCjZhML0BAw-14">
          <mxGeometry y="52" width="160" height="1" as="geometry"/>
        </mxCell>
        <mxCell id="ViBWjFZoWZCjZhML0BAw-17" value="+ getState(): Object" style="text;strokeColor=none;fillColor=#F08E81;align=left;verticalAlign=top;spacingLeft=4;spacingRight=4;overflow=hidden;rotatable=0;points=[[0,0.5],[1,0.5]];portConstraint=eastwest;fontColor=#FFFFFF;" vertex="1" parent="ViBWjFZoWZCjZhML0BAw-14">
          <mxGeometry y="53" width="160" height="26" as="geometry"/>
        </mxCell>
        <mxCell id="ViBWjFZoWZCjZhML0BAw-18" value="+ setState(Object)" style="text;strokeColor=none;fillColor=#F08E81;align=left;verticalAlign=top;spacingLeft=4;spacingRight=4;overflow=hidden;rotatable=0;points=[[0,0.5],[1,0.5]];portConstraint=eastwest;fontColor=#FFFFFF;" vertex="1" parent="ViBWjFZoWZCjZhML0BAw-14">
          <mxGeometry y="79" width="160" height="26" as="geometry"/>
        </mxCell>
        <mxCell id="ViBWjFZoWZCjZhML0BAw-24" value="+ setMemoto(Memoto)" style="text;strokeColor=none;fillColor=#F08E81;align=left;verticalAlign=top;spacingLeft=4;spacingRight=4;overflow=hidden;rotatable=0;points=[[0,0.5],[1,0.5]];portConstraint=eastwest;fontColor=#FFFFFF;" vertex="1" parent="ViBWjFZoWZCjZhML0BAw-14">
          <mxGeometry y="105" width="160" height="26" as="geometry"/>
        </mxCell>
        <mxCell id="ViBWjFZoWZCjZhML0BAw-25" value="+ creteMemoto()" style="text;strokeColor=none;fillColor=#F08E81;align=left;verticalAlign=top;spacingLeft=4;spacingRight=4;overflow=hidden;rotatable=0;points=[[0,0.5],[1,0.5]];portConstraint=eastwest;fontColor=#FFFFFF;" vertex="1" parent="ViBWjFZoWZCjZhML0BAw-14">
          <mxGeometry y="131" width="160" height="26" as="geometry"/>
        </mxCell>
        <mxCell id="ViBWjFZoWZCjZhML0BAw-19" value="Caretaker" style="swimlane;fontStyle=1;align=center;verticalAlign=top;childLayout=stackLayout;horizontal=1;startSize=26;horizontalStack=0;resizeParent=1;resizeParentMax=0;resizeLast=0;collapsible=1;marginBottom=0;fillColor=#F08E81;fontColor=#FFFFFF;" vertex="1" parent="1">
          <mxGeometry x="480" y="320" width="160" height="105" as="geometry"/>
        </mxCell>
        <mxCell id="ViBWjFZoWZCjZhML0BAw-20" value="-Â  memoto: Memoto" style="text;strokeColor=none;fillColor=#F08E81;align=left;verticalAlign=top;spacingLeft=4;spacingRight=4;overflow=hidden;rotatable=0;points=[[0,0.5],[1,0.5]];portConstraint=eastwest;fontColor=#FFFFFF;" vertex="1" parent="ViBWjFZoWZCjZhML0BAw-19">
          <mxGeometry y="26" width="160" height="26" as="geometry"/>
        </mxCell>
        <mxCell id="ViBWjFZoWZCjZhML0BAw-21" value="" style="line;strokeWidth=1;fillColor=#F08E81;align=left;verticalAlign=middle;spacingTop=-1;spacingLeft=3;spacingRight=3;rotatable=0;labelPosition=right;points=[];portConstraint=eastwest;fontColor=#FFFFFF;" vertex="1" parent="ViBWjFZoWZCjZhML0BAw-19">
          <mxGeometry y="52" width="160" height="1" as="geometry"/>
        </mxCell>
        <mxCell id="ViBWjFZoWZCjZhML0BAw-22" value="+ getMemoto(): Memoto" style="text;strokeColor=none;fillColor=#F08E81;align=left;verticalAlign=top;spacingLeft=4;spacingRight=4;overflow=hidden;rotatable=0;points=[[0,0.5],[1,0.5]];portConstraint=eastwest;fontColor=#FFFFFF;" vertex="1" parent="ViBWjFZoWZCjZhML0BAw-19">
          <mxGeometry y="53" width="160" height="26" as="geometry"/>
        </mxCell>
        <mxCell id="ViBWjFZoWZCjZhML0BAw-26" value="+ setMemoto(Memoto)" style="text;strokeColor=none;fillColor=#F08E81;align=left;verticalAlign=top;spacingLeft=4;spacingRight=4;overflow=hidden;rotatable=0;points=[[0,0.5],[1,0.5]];portConstraint=eastwest;fontColor=#FFFFFF;" vertex="1" parent="ViBWjFZoWZCjZhML0BAw-19">
          <mxGeometry y="79" width="160" height="26" as="geometry"/>
        </mxCell>
        <mxCell id="ViBWjFZoWZCjZhML0BAw-27" value="Use" style="endArrow=open;endSize=12;dashed=1;html=1;fontColor=#000000;exitX=0.5;exitY=0;exitDx=0;exitDy=0;edgeStyle=orthogonalEdgeStyle;entryX=0.5;entryY=1;entryDx=0;entryDy=0;" edge="1" parent="1" source="ViBWjFZoWZCjZhML0BAw-14" target="ViBWjFZoWZCjZhML0BAw-1">
          <mxGeometry width="160" relative="1" as="geometry">
            <mxPoint x="160" y="540" as="sourcePoint"/>
            <mxPoint x="410" y="250" as="targetPoint"/>
          </mxGeometry>
        </mxCell>
        <mxCell id="ViBWjFZoWZCjZhML0BAw-28" value="" style="endArrow=diamondThin;endFill=0;endSize=24;html=1;fontColor=#000000;entryX=0.5;entryY=0;entryDx=0;entryDy=0;exitX=0.5;exitY=1;exitDx=0;exitDy=0;edgeStyle=orthogonalEdgeStyle;" edge="1" parent="1" source="ViBWjFZoWZCjZhML0BAw-1" target="ViBWjFZoWZCjZhML0BAw-19">
          <mxGeometry width="160" relative="1" as="geometry">
            <mxPoint x="560" y="250" as="sourcePoint"/>
            <mxPoint x="440" y="620" as="targetPoint"/>
          </mxGeometry>
        </mxCell>
      </root>
    </mxGraphModel>
  </diagram>
</mxfile>
